<?xml version="1.0" standalone="no"?>
<!DOCTYPE svg PUBLIC "-//W3C//DTD SVG 1.1//EN" "http://www.w3.org/Graphics/SVG/1.1/DTD/svg11.dtd" >
<svg xmlns="http://www.w3.org/2000/svg">
<metadata></metadata>
<defs>
<font id="fs_elliotbold" horiz-adv-x="1179" >
<font-face units-per-em="2048" ascent="1536" descent="-512" />
<missing-glyph horiz-adv-x="491" />
<glyph unicode="&#xfb01;" horiz-adv-x="1269" d="M45 805v199h186v92q0 163 118 266.5t304 103.5q158 0 344 -55l-45 -199q-161 50 -258 50q-89 0 -144.5 -49.5t-55.5 -127.5v-81h641v-1004h-263v805h-378v-805h-263v805h-186z" />
<glyph unicode="&#xfb02;" horiz-adv-x="1368" d="M45 805v199h186v92q0 164 121 267t312 103q190 0 471 -49v-1130q0 -47 27 -75t73 -28q21 0 92 13l29 -199q-108 -23 -182 -23q-135 0 -218.5 79.5t-83.5 205.5v983q-111 19 -188 19q-86 0 -138 -49t-52 -128v-81h245v-199h-245v-805h-263v805h-186z" />
<glyph unicode="&#xfb03;" horiz-adv-x="1941" d="M45 805v199h186v139q0 144 94.5 233.5t245.5 89.5q108 0 228 -30l-35 -197q-70 18 -129 18q-63 0 -102 -39t-39 -102v-112h411v92q0 163 117.5 266.5t302.5 103.5q160 0 346 -55l-47 -199q-158 50 -256 50q-90 0 -145.5 -49.5t-55.5 -127.5v-81h641v-1004h-262v805h-379 v-805h-262v805h-411v-805h-263v805h-186z" />
<glyph unicode="&#xfb04;" horiz-adv-x="2039" d="M45 805v199h186v139q0 144 94.5 233.5t245.5 89.5q108 0 228 -30l-35 -197q-70 18 -129 18q-63 0 -102 -39t-39 -102v-112h411v92q0 164 119.5 267t310.5 103q192 0 473 -49v-1130q0 -47 27.5 -75t73.5 -28q23 0 90 13l29 -199q-104 -23 -183 -23q-133 0 -216 79.5 t-83 205.5v983q-111 19 -190 19q-84 0 -136.5 -49.5t-52.5 -127.5v-81h244v-199h-244v-805h-262v805h-411v-805h-263v805h-186z" />
<glyph horiz-adv-x="0" />
<glyph horiz-adv-x="0" />
<glyph horiz-adv-x="682" />
<glyph unicode="&#xd;" horiz-adv-x="491" />
<glyph unicode=" "  horiz-adv-x="491" />
<glyph unicode="&#x09;" horiz-adv-x="491" />
<glyph unicode="&#xa0;" horiz-adv-x="491" />
<glyph unicode="!" horiz-adv-x="575" d="M131 135q0 69 44 113.5t112 44.5q69 0 113 -44.5t44 -113.5t-44 -113.5t-113 -44.5q-71 0 -113.5 44t-42.5 114zM156 1376h264l-23 -919h-219z" />
<glyph unicode="&#x22;" horiz-adv-x="909" d="M117 1376h243l-22 -497h-199zM549 1376h244l-23 -497h-199z" />
<glyph unicode="#" horiz-adv-x="1351" d="M33 322v200h243l64 332h-205v201h244l65 338l197 -27l-59 -311h329l66 338l197 -27l-60 -311h205v-201h-244l-63 -332h207v-200h-244l-66 -338l-196 26l57 312h-330l-65 -338l-197 26l60 312h-205zM479 522h330l63 332h-329z" />
<glyph unicode="$" d="M131 166l64 205q213 -88 374 -88q100 0 155.5 39t55.5 108q0 40 -27.5 69t-72.5 45t-102.5 33t-118 31.5t-118 42.5t-102.5 63.5t-72.5 97.5t-27.5 142q0 132 92.5 222.5t247.5 113.5v348h221v-344q139 -14 308 -80l-64 -202q-195 82 -334 82q-94 0 -148 -38t-54 -102 q0 -44 35.5 -73.5t92 -46.5t124.5 -33t136.5 -41.5t125 -62.5t92 -105t35.5 -162q0 -136 -95 -228t-254 -116v-348h-221v342q-165 15 -348 86z" />
<glyph unicode="%" horiz-adv-x="1769" d="M74 1032q0 162 101.5 265.5t260.5 103.5t262 -104t103 -265t-103 -264.5t-262 -103.5t-260.5 103t-101.5 265zM268 1032q0 -97 46.5 -156t121.5 -59t122.5 59.5t47.5 155.5t-47.5 155.5t-122.5 59.5t-121.5 -59t-46.5 -156zM301 51l1032 1376l135 -102l-1032 -1376z M969 344q0 161 102 265t262 104q158 0 260.5 -104t102.5 -265t-102.5 -265t-260.5 -104q-160 0 -262 104t-102 265zM1163 344q0 -96 47.5 -155.5t122.5 -59.5t121.5 59t46.5 156t-46.5 156t-121.5 59t-122.5 -59.5t-47.5 -155.5z" />
<glyph unicode="&#x26;" horiz-adv-x="1341" d="M63 381q0 119 76.5 219t222.5 172q-151 158 -151 295q0 147 110.5 240.5t282.5 93.5q168 0 275.5 -87t107.5 -224q0 -110 -69.5 -199.5t-221.5 -167.5l265 -287q54 99 57 240h221q-6 -234 -129 -404l250 -272h-287l-131 141q-181 -166 -391 -166q-214 0 -351 114 t-137 292zM309 401q0 -98 77 -162.5t185 -64.5q134 0 238 113l-328 354q-172 -104 -172 -240zM446 1057q0 -80 125 -195q97 52 141 101t44 104q0 59 -43 97t-109 38q-70 0 -114 -40t-44 -105z" />
<glyph unicode="'" horiz-adv-x="477" d="M117 1376h243l-22 -497h-199z" />
<glyph unicode="(" horiz-adv-x="718" d="M133 590q0 261 93 500.5t270 431.5l186 -123q-153 -171 -230 -377.5t-77 -431.5t77 -431.5t230 -377.5l-186 -123q-177 190 -270 429.5t-93 502.5z" />
<glyph unicode=")" horiz-adv-x="718" d="M35 -219q154 170 230.5 376.5t76.5 432.5t-76.5 432.5t-230.5 376.5l186 123q178 -190 270.5 -429t92.5 -503q0 -262 -92.5 -501.5t-270.5 -430.5z" />
<glyph unicode="*" horiz-adv-x="1024" d="M72 991l55 170l297 -96v311h178v-311l295 96l57 -170l-299 -98l185 -252l-144 -106l-184 260l-184 -260l-144 106l185 252z" />
<glyph unicode="+" d="M90 479v221h389v390h221v-390h390v-221h-390v-389h-221v389h-389z" />
<glyph unicode="," horiz-adv-x="542" d="M98 -225q124 102 150 215q-62 6 -102 48t-40 103q0 71 46 117.5t118 46.5q75 0 122.5 -56t47.5 -145q0 -128 -69 -242t-193 -190z" />
<glyph unicode="-" horiz-adv-x="655" d="M45 414v200h565v-200h-565z" />
<glyph unicode="." horiz-adv-x="542" d="M106 141q0 72 46.5 118t117.5 46q72 0 118 -46t46 -118q0 -71 -46 -117.5t-118 -46.5q-70 0 -117 46.5t-47 117.5z" />
<glyph unicode="/" horiz-adv-x="786" d="M-18 -240l614 1725l209 -66l-615 -1724z" />
<glyph unicode="0" d="M63 688q0 333 139 523t388 190t387.5 -190t138.5 -523t-138.5 -523t-387.5 -190t-388 190t-139 523zM309 688q0 -232 75 -365t206 -133q130 0 205 133t75 365t-75 365t-205 133q-131 0 -206 -133t-75 -365z" />
<glyph unicode="1" d="M158 1118l448 258h219v-1376h-262v1122l-315 -180z" />
<glyph unicode="2" d="M90 1260q242 141 467 141q196 0 320 -116.5t124 -299.5q0 -222 -198 -420l-354 -356h569v-209h-918v166l490 489q155 155 155 293q0 103 -66.5 167.5t-172.5 64.5q-77 0 -148.5 -28t-167.5 -85z" />
<glyph unicode="3" d="M74 84l84 195q201 -95 362 -95q106 0 174 58t68 149q0 97 -81 158t-210 61h-96v189h96q117 0 190.5 56.5t73.5 145.5q0 85 -57.5 138t-151.5 53q-150 0 -336 -86l-84 194q224 101 461 101q189 0 309.5 -104.5t120.5 -268.5q0 -113 -59.5 -196.5t-163.5 -120.5 q115 -37 185.5 -130.5t70.5 -215.5q0 -171 -130 -280.5t-333 -109.5q-255 0 -493 109z" />
<glyph unicode="4" d="M51 297v178l633 901h250v-878h182v-201h-182v-297h-242v297h-641zM295 498h397v565z" />
<glyph unicode="5" d="M100 100l101 193q170 -103 315 -103q123 0 195.5 63t72.5 169q0 113 -79.5 177.5t-221.5 64.5q-127 0 -288 -37v749h796v-209h-567v-331q61 10 143 10q217 0 345 -116.5t128 -313.5q0 -193 -140.5 -317t-362.5 -124q-229 0 -437 125z" />
<glyph unicode="6" d="M90 621q0 370 158 575t440 205q199 0 369 -90l-90 -189q-145 74 -269 74q-165 0 -260.5 -117t-99.5 -334q52 71 138 112.5t188 41.5q198 0 323 -124t125 -320q0 -209 -138.5 -344.5t-350.5 -135.5q-249 0 -391 170t-142 476zM354 465q0 -126 72 -205.5t186 -79.5 q111 0 184.5 75t73.5 189t-70 184t-184 70q-113 0 -187.5 -66t-74.5 -167z" />
<glyph unicode="7" d="M113 1167v209h917v-166l-516 -1210h-274l503 1167h-630z" />
<glyph unicode="8" d="M74 367q0 119 72 208t202 130q-110 39 -176 124t-66 197q0 166 134.5 270.5t349.5 104.5t349 -104.5t134 -270.5q0 -112 -66 -197t-176 -124q131 -43 203 -131.5t72 -206.5q0 -175 -143 -283.5t-373 -108.5t-373 108.5t-143 283.5zM336 383q0 -93 70.5 -151t183.5 -58 t183.5 58t70.5 151q0 87 -67 144t-187 83q-120 -26 -187 -83t-67 -144zM358 1010q0 -161 232 -211q231 50 231 211q0 83 -65.5 137.5t-165.5 54.5t-166 -54.5t-66 -137.5z" />
<glyph unicode="9" d="M68 922q0 209 138 344t351 135q249 0 391 -169.5t142 -475.5q0 -370 -158 -575.5t-440 -205.5q-197 0 -369 91l90 188q145 -74 268 -74q165 0 261 117t100 334q-52 -71 -138 -112.5t-188 -41.5q-198 0 -323 124t-125 321zM309 932q0 -114 70 -184t184 -70q113 0 187.5 66 t74.5 167q0 126 -72 205.5t-186 79.5q-111 0 -184.5 -75t-73.5 -189z" />
<glyph unicode=":" horiz-adv-x="575" d="M123 141q0 72 46.5 118t117.5 46q72 0 118 -46t46 -118q0 -71 -46 -117.5t-118 -46.5q-71 0 -117.5 46.5t-46.5 117.5zM123 860q0 72 46.5 118t117.5 46q72 0 118 -46t46 -118q0 -71 -46 -117.5t-118 -46.5q-71 0 -117.5 47t-46.5 117z" />
<glyph unicode=";" horiz-adv-x="575" d="M115 -225q123 101 149 215q-62 6 -101.5 48t-39.5 103q0 71 46 117.5t118 46.5q75 0 122.5 -56t47.5 -145q0 -128 -69 -242t-193 -190zM123 860q0 72 46.5 118t117.5 46q72 0 118 -46t46 -118q0 -71 -46 -117.5t-118 -46.5q-71 0 -117.5 47t-46.5 117z" />
<glyph unicode="&#x3c;" d="M90 479v221l934 426l88 -208l-725 -328l725 -328l-88 -209z" />
<glyph unicode="=" d="M90 242v219h1000v-219h-1000zM90 719v219h1000v-219h-1000z" />
<glyph unicode="&#x3e;" d="M68 262l725 328l-725 328l88 208l934 -426v-221l-934 -426z" />
<glyph unicode="?" horiz-adv-x="958" d="M51 1272q192 129 402 129q186 0 305 -105t119 -268q0 -60 -16.5 -114t-43 -95t-59 -78.5t-66 -70t-61.5 -63t-48 -65.5t-24 -69l-2 -16h-219v37q0 67 28.5 126t69 102t81 83t69 88t28.5 98q0 84 -57 136.5t-145 52.5q-107 0 -260 -95zM289 141q0 67 44 109.5t113 42.5 t113.5 -42.5t44.5 -109.5q0 -70 -45 -117t-113 -47t-112.5 47t-44.5 117z" />
<glyph unicode="@" horiz-adv-x="2007" d="M80 502q0 199 70.5 370.5t195 292t301 188.5t381.5 68q195 0 363 -60.5t286 -166.5t185 -257t67 -327q0 -246 -122 -400.5t-316 -154.5q-88 0 -155.5 38.5t-98.5 105.5q-122 -144 -309 -144q-173 0 -285.5 126.5t-112.5 320.5t112.5 320t285.5 126q165 0 258 -117l26 97 h213v-572q0 -51 26.5 -81.5t70.5 -30.5q83 0 134.5 95.5t51.5 250.5q0 186 -86.5 331.5t-241.5 225.5t-352 80q-211 0 -377 -92t-259 -257.5t-93 -375.5t93 -375.5t259 -257.5t377 -92q228 0 496 149l100 -172q-319 -172 -596 -172q-206 0 -382.5 68t-301 188.5t-194.5 292 t-70 371.5zM793 502q0 -107 56 -175.5t142 -68.5q80 0 129 55t49 138v102q0 84 -48.5 138t-129.5 54q-87 0 -142.5 -68t-55.5 -175z" />
<glyph unicode="A" horiz-adv-x="1394" d="M8 0l563 1376h252l563 -1376h-274l-127 328h-575l-127 -328h-275zM483 526h430l-215 551z" />
<glyph unicode="B" horiz-adv-x="1351" d="M172 0v1376h600q192 0 314 -101.5t122 -262.5q0 -101 -51.5 -178.5t-138.5 -116.5q111 -38 175 -128t64 -208q0 -168 -127.5 -274.5t-324.5 -106.5h-633zM434 199h328q101 0 164 58.5t63 150.5t-63 149t-164 57h-328v-415zM434 795h301q93 0 152 53t59 137 q0 85 -59.5 139t-151.5 54h-301v-383z" />
<glyph unicode="C" horiz-adv-x="1331" d="M80 688q0 208 89 370.5t250 252.5t367 90q255 0 494 -156l-111 -182q-175 121 -348 121q-206 0 -335.5 -138t-129.5 -358t129.5 -357.5t335.5 -137.5q174 0 348 120l111 -182q-239 -156 -494 -156q-155 0 -286.5 53t-223.5 146.5t-144 226t-52 287.5z" />
<glyph unicode="D" horiz-adv-x="1492" d="M172 0v1376h535q209 0 370 -86t249.5 -242.5t88.5 -359.5q0 -201 -88.5 -357.5t-250 -243.5t-369.5 -87h-535zM444 209h230q204 0 333.5 134t129.5 345t-129.5 345t-333.5 134h-230v-958z" />
<glyph unicode="E" horiz-adv-x="1232" d="M172 0v1376h940v-205h-668v-366h603v-201h-603v-399h701v-205h-973z" />
<glyph unicode="F" horiz-adv-x="1200" d="M172 0v1376h940v-209h-668v-411h603v-211h-603v-545h-272z" />
<glyph unicode="G" horiz-adv-x="1460" d="M80 688q0 207 91.5 369.5t256.5 253t375 90.5q249 0 510 -141l-101 -183q-216 115 -378 115q-216 0 -352 -141t-136 -363q0 -224 137.5 -364t356.5 -140q127 0 247 52v323h-309v201h561v-668q-272 -117 -520 -117q-161 0 -299 53t-234.5 146.5t-151 226t-54.5 287.5z" />
<glyph unicode="H" horiz-adv-x="1591" d="M172 0v1376h272v-567h703v567h272v-1376h-272v600h-703v-600h-272z" />
<glyph unicode="I" horiz-adv-x="618" d="M172 0v1376h272v-1376h-272z" />
<glyph unicode="J" horiz-adv-x="925" d="M35 14l35 209q110 -26 192 -26q96 0 157.5 60.5t61.5 158.5v960h273v-987q0 -184 -119.5 -299t-310.5 -115q-142 0 -289 39z" />
<glyph unicode="K" horiz-adv-x="1394" d="M172 0v1376h262v-653l608 653h314l-606 -643l634 -733h-319l-498 573l-133 -139v-434h-262z" />
<glyph unicode="L" horiz-adv-x="1101" d="M172 0v1376h272v-1167h613v-209h-885z" />
<glyph unicode="M" horiz-adv-x="1771" d="M172 0v1376h264l451 -618l448 618h264v-1376h-251v1004l-385 -531h-152l-387 531v-1004h-252z" />
<glyph unicode="N" horiz-adv-x="1591" d="M172 0v1376h264l731 -1003v1003h252v-1376h-264l-731 1004v-1004h-252z" />
<glyph unicode="O" horiz-adv-x="1591" d="M80 688q0 155 53 287.5t147 226t227.5 146.5t289.5 53q207 0 370.5 -90.5t254.5 -253t91 -369.5t-91 -369.5t-254.5 -253t-370.5 -90.5q-156 0 -289.5 53t-227.5 146.5t-147 226t-53 287.5zM356 688q0 -218 124 -358t317 -140t315.5 139.5t122.5 358.5t-122.5 358.5 t-315.5 139.5t-317 -140t-124 -358z" />
<glyph unicode="P" horiz-adv-x="1286" d="M172 0v1376h563q215 0 352.5 -127t137.5 -325q0 -200 -137.5 -327.5t-352.5 -127.5h-301v-469h-262zM434 680h260q117 0 189.5 68t72.5 176q0 106 -73 174.5t-189 68.5h-260v-487z" />
<glyph unicode="Q" horiz-adv-x="1591" d="M80 688q0 155 53 287.5t147 226t227.5 146.5t289.5 53q207 0 370.5 -90.5t254.5 -253t91 -369.5q0 -190 -77.5 -342t-214.5 -244l305 -219l-133 -166l-392 287q-101 -29 -204 -29q-156 0 -289.5 53t-227.5 146.5t-147 226t-53 287.5zM356 688q0 -218 124 -358t317 -140 t315.5 139.5t122.5 358.5t-122.5 358.5t-315.5 139.5t-317 -140t-124 -358z" />
<glyph unicode="R" horiz-adv-x="1351" d="M172 0v1376h573q207 0 340.5 -121t133.5 -311q0 -153 -86.5 -261.5t-231.5 -139.5l377 -543h-297l-334 502h-213v-502h-262zM434 713h271q108 0 176.5 62.5t68.5 164.5q0 100 -69 163.5t-176 63.5h-271v-454z" />
<glyph unicode="S" horiz-adv-x="1204" d="M84 88l61 203q265 -101 437 -101q126 0 199 50.5t73 136.5q0 48 -26 84t-70 58.5t-101.5 40.5t-120.5 35t-126 37t-120.5 51t-101.5 72t-70 105.5t-26 147.5q0 175 142 284t368 109q216 0 469 -96l-61 -203q-212 84 -387 84q-120 0 -191.5 -48t-71.5 -130q0 -47 26 -81.5 t70 -56.5t101 -39t120 -34t126 -36.5t120 -51t101 -73.5t70 -108t26 -151q0 -180 -143.5 -291t-374.5 -111q-249 0 -518 113z" />
<glyph unicode="T" horiz-adv-x="1232" d="M45 1167v209h1143v-209h-434v-1167h-273v1167h-436z" />
<glyph unicode="U" horiz-adv-x="1591" d="M156 539v837h272v-827q0 -158 103.5 -258.5t265.5 -100.5q160 0 263 100.5t103 258.5v827h273v-837q0 -165 -82 -293.5t-227.5 -199.5t-329.5 -71t-330 71t-228.5 200t-82.5 293z" />
<glyph unicode="V" horiz-adv-x="1394" d="M8 1376h285l405 -1046l404 1046h284l-563 -1376h-252z" />
<glyph unicode="W" horiz-adv-x="2082" d="M33 1376h274l303 -1046l305 1046h254l304 -1046l305 1046h272l-438 -1376h-266l-304 1047l-305 -1047h-266z" />
<glyph unicode="X" horiz-adv-x="1411" d="M20 0l512 705l-487 671h301l361 -499l358 499h301l-485 -671l510 -705h-308l-376 532l-379 -532h-308z" />
<glyph unicode="Y" horiz-adv-x="1263" d="M-8 1376h297l342 -575l344 575h295l-502 -817v-559h-272v559z" />
<glyph unicode="Z" horiz-adv-x="1302" d="M84 0v156l760 1011h-735v209h1085v-155l-760 -1012h785v-209h-1135z" />
<glyph unicode="[" horiz-adv-x="718" d="M178 -283v1745h484v-209h-242v-1327h242v-209h-484z" />
<glyph unicode="\" horiz-adv-x="786" d="M-18 1419l208 66l615 -1725l-209 -65z" />
<glyph unicode="]" horiz-adv-x="718" d="M57 -74h240v1327h-240v209h482v-1745h-482v209z" />
<glyph unicode="^" d="M53 420l426 956h221l426 -956l-208 -78l-328 737l-328 -737z" />
<glyph unicode="_" horiz-adv-x="983" d="M0 -162h983v-200h-983v200z" />
<glyph unicode="`" horiz-adv-x="491" d="M-63 1335l116 168l379 -264l-100 -143z" />
<glyph unicode="a" horiz-adv-x="1128" d="M74 291q0 158 122 246t341 88q95 0 194 -21v53q0 77 -57 127t-150 50q-150 0 -329 -72l-66 182q221 84 426 84q190 0 306 -103.5t116 -271.5v-407q0 -32 19 -52t51 -20q27 0 51 6l18 -190q-81 -15 -139 -15q-76 0 -132 36t-83 100q-65 -65 -151.5 -100.5t-178.5 -35.5 q-157 0 -257.5 89t-100.5 227zM326 305q0 -61 50 -103t124 -42q104 0 167.5 65t63.5 168v60q-76 20 -164 20q-112 0 -176.5 -45t-64.5 -123z" />
<glyph unicode="b" horiz-adv-x="1230" d="M133 0v1442h262v-551q112 137 301 137q203 0 332 -147t129 -379t-129 -379.5t-332 -147.5q-99 0 -182 40t-139 114l-33 -129h-209zM391 434q0 -109 67 -180.5t171 -71.5q115 0 188.5 90t73.5 230q0 141 -73 230t-189 89q-104 0 -171 -71t-67 -181v-135z" />
<glyph unicode="c" horiz-adv-x="1024" d="M74 502q0 232 148.5 379t381.5 147q203 0 385 -117l-106 -176q-124 84 -242 84q-132 0 -216.5 -89t-84.5 -228t84.5 -228.5t216.5 -89.5q115 0 242 86l106 -178q-182 -117 -385 -117q-233 0 -381.5 148t-148.5 379z" />
<glyph unicode="d" horiz-adv-x="1230" d="M74 502q0 232 128.5 379t329.5 147q190 0 302 -137v551h262v-1442h-209l-33 129q-56 -74 -139 -114t-183 -40q-201 0 -329.5 147.5t-128.5 379.5zM340 502q0 -140 73 -230t187 -90q105 0 172.5 71.5t67.5 180.5v135q0 110 -67 181t-173 71q-114 0 -187 -89t-73 -230z" />
<glyph unicode="e" horiz-adv-x="1128" d="M74 502q0 232 143.5 379t370.5 147q214 0 348.5 -141t134.5 -367q0 -30 -4 -84h-731q13 -120 100.5 -193t216.5 -73q136 0 289 84l80 -178q-203 -101 -401 -101q-242 0 -394.5 147.5t-152.5 379.5zM336 594h483q-6 108 -69.5 174t-161.5 66q-101 0 -170.5 -66.5 t-81.5 -173.5z" />
<glyph unicode="f" horiz-adv-x="784" d="M45 805v199h186v139q0 144 94.5 233.5t245.5 89.5q108 0 228 -30l-35 -197q-70 18 -129 18q-63 0 -102 -39t-39 -102v-112h245v-199h-245v-805h-263v805h-186z" />
<glyph unicode="g" horiz-adv-x="1230" d="M74 502q0 232 128.5 379t329.5 147q100 0 183 -40t139 -114l33 130h209v-986q0 -204 -153 -336.5t-388 -132.5q-202 0 -426 93l72 194q183 -82 334 -82q132 0 215.5 71t83.5 183v107q-112 -140 -302 -140q-201 0 -329.5 147.5t-128.5 379.5zM340 502q0 -140 73 -230 t187 -90q105 0 172.5 71.5t67.5 180.5v135q0 110 -67 181t-173 71q-114 0 -187 -89t-73 -230z" />
<glyph unicode="h" horiz-adv-x="1230" d="M133 0v1442h262v-568q54 73 139.5 113.5t186.5 40.5q172 0 281.5 -107t109.5 -276v-645h-262v604q0 92 -59 150.5t-150 58.5q-107 0 -176.5 -72.5t-69.5 -187.5v-553h-262z" />
<glyph unicode="i" horiz-adv-x="530" d="M109 1290q0 69 43.5 113.5t111.5 44.5q69 0 113.5 -44.5t44.5 -113.5t-44.5 -113t-113.5 -44q-68 0 -111.5 44t-43.5 113zM133 0v1004h262v-1004h-262z" />
<glyph unicode="j" horiz-adv-x="546" d="M-154 -420l35 197q74 -19 129 -19q63 0 101.5 39.5t38.5 102.5v1104h262v-1131q0 -145 -93.5 -234.5t-244.5 -89.5q-104 0 -228 31zM125 1290q0 69 44 113.5t112 44.5q69 0 113 -44.5t44 -113.5t-44 -113t-113 -44q-68 0 -112 44t-44 113z" />
<glyph unicode="k" horiz-adv-x="1087" d="M133 0v1442h252v-867l383 429h299l-432 -469l448 -535h-303l-315 381l-80 -82v-299h-252z" />
<glyph unicode="l" horiz-adv-x="628" d="M133 260v1182h262v-1155q0 -47 28.5 -75t74.5 -28q18 0 90 13l28 -199q-108 -23 -182 -23q-138 0 -219.5 77t-81.5 208z" />
<glyph unicode="m" horiz-adv-x="1882" d="M133 0v1004h209l33 -138q60 78 145 120t185 42q109 0 193.5 -49t127.5 -135q142 184 363 184q164 0 269 -102.5t105 -263.5v-662h-262v621q0 85 -54 138.5t-140 53.5q-100 0 -164 -68.5t-64 -175.5v-569h-262v621q0 85 -53.5 138.5t-138.5 53.5q-101 0 -165.5 -68.5 t-64.5 -175.5v-569h-262z" />
<glyph unicode="n" horiz-adv-x="1230" d="M133 0v1004h209l33 -146q57 82 147 126t199 44q172 0 281.5 -107t109.5 -276v-645h-262v604q0 92 -59 150.5t-150 58.5q-107 0 -176.5 -72.5t-69.5 -187.5v-553h-262z" />
<glyph unicode="o" horiz-adv-x="1230" d="M74 502q0 232 151 379t389 147q239 0 391 -147t152 -379t-152 -379.5t-391 -147.5q-238 0 -389 147.5t-151 379.5zM340 502q0 -141 77 -231.5t197 -90.5q121 0 199 90.5t78 231.5q0 142 -77.5 231.5t-199.5 89.5q-120 0 -197 -89.5t-77 -231.5z" />
<glyph unicode="p" horiz-adv-x="1230" d="M133 -426v1430h209l33 -130q56 74 139 114t182 40q203 0 332 -147t129 -379t-129 -379.5t-332 -147.5q-189 0 -301 140v-541h-262zM391 434q0 -109 67 -180.5t171 -71.5q115 0 188.5 90t73.5 230q0 141 -73 230t-189 89q-104 0 -171 -71t-67 -181v-135z" />
<glyph unicode="q" horiz-adv-x="1230" d="M74 502q0 232 128.5 379t329.5 147q100 0 183 -40t139 -114l33 130h209v-1430h-262v541q-112 -140 -302 -140q-201 0 -329.5 147.5t-128.5 379.5zM340 502q0 -140 73 -230t187 -90q105 0 172.5 71.5t67.5 180.5v135q0 110 -67 181t-173 71q-114 0 -187 -89t-73 -230z" />
<glyph unicode="r" horiz-adv-x="821" d="M133 0v1004h209l33 -156q43 82 121 127t176 45q64 0 121 -14l-25 -209q-61 14 -117 14q-116 0 -186 -81.5t-70 -211.5v-518h-262z" />
<glyph unicode="s" horiz-adv-x="948" d="M74 55l55 187q179 -72 324 -72q75 0 119 32t44 85q0 38 -29.5 63.5t-76.5 40t-104 28t-114 34.5t-104 51.5t-76.5 87t-29.5 133.5q0 133 109 218t282 85q171 0 369 -70l-58 -188q-164 64 -290 64q-71 0 -113.5 -30t-42.5 -79q0 -36 29.5 -60.5t77 -38.5t104.5 -27 t114 -34t104.5 -52.5t77 -89t29.5 -136.5q0 -137 -111.5 -224.5t-289.5 -87.5q-186 0 -399 80z" />
<glyph unicode="t" horiz-adv-x="849" d="M45 805v199h186v294h263v-294h278v-199h-278v-479q0 -63 39 -102.5t102 -39.5q55 0 129 19l35 -197q-124 -31 -228 -31q-151 0 -245.5 90t-94.5 234v506h-186z" />
<glyph unicode="u" horiz-adv-x="1230" d="M117 358v646h262v-603q0 -93 59 -152t152 -59q106 0 175 73t69 188v553h262v-1004h-209l-33 145q-55 -82 -145 -126t-199 -44q-172 0 -282.5 107.5t-110.5 275.5z" />
<glyph unicode="v" horiz-adv-x="1099" d="M18 1004h275l256 -707l258 707h272l-409 -1004h-242z" />
<glyph unicode="w" horiz-adv-x="1624" d="M35 1004h264l195 -705l196 705h244l194 -705l197 705h262l-325 -1004h-254l-197 705l-195 -705h-254z" />
<glyph unicode="x" horiz-adv-x="1099" d="M14 0l367 514l-350 490h291l227 -326l227 326h291l-348 -490l364 -514h-295l-239 350l-238 -350h-297z" />
<glyph unicode="y" horiz-adv-x="1099" d="M18 1004h275l260 -707l254 707h272l-446 -1117q-68 -171 -166.5 -254.5t-235.5 -83.5q-65 0 -155 19l35 205q66 -15 96 -15q67 0 110.5 38.5t79.5 127.5l35 88z" />
<glyph unicode="z" horiz-adv-x="1013" d="M74 0v145l510 660h-494v199h834v-144l-510 -661h526v-199h-866z" />
<glyph unicode="{" horiz-adv-x="718" d="M35 485v209h33q67 0 111 42t44 104q0 47 -11 140.5t-11 141.5q0 149 102.5 244.5t261.5 95.5h97v-209h-33q-78 0 -129 -51.5t-51 -130.5q0 -41 8 -125.5t8 -126.5q0 -83 -41 -144t-117 -85q75 -24 116.5 -85.5t41.5 -144.5q0 -42 -8 -126t-8 -125q0 -79 51 -131t129 -52 h33v-209h-97q-159 0 -261.5 95.5t-102.5 244.5q0 48 11 141.5t11 141.5q0 62 -44 103.5t-111 41.5h-33z" />
<glyph unicode="|" horiz-adv-x="491" d="M135 -459v1966h221v-1966h-221z" />
<glyph unicode="}" horiz-adv-x="718" d="M57 -74h33q78 0 129 52t51 131q0 41 -8 125t-8 126q0 83 41.5 144.5t116.5 85.5q-76 24 -117 85t-41 144q0 42 8 126.5t8 125.5q0 79 -51 130.5t-129 51.5h-33v209h95q159 0 261.5 -95.5t102.5 -244.5q0 -48 -11 -141t-11 -141q0 -62 44 -104t111 -42h33v-209h-33 q-66 0 -110.5 -41.5t-44.5 -103.5q0 -47 11 -141t11 -142q0 -149 -102.5 -244.5t-261.5 -95.5h-95v209z" />
<glyph unicode="~" d="M47 629q154 121 326 121q62 0 123 -15.5t103 -34t98.5 -34t109.5 -15.5q108 0 207 86l119 -186q-154 -121 -326 -121q-78 0 -153 24.5t-145 49t-136 24.5q-108 0 -207 -86z" />
<glyph unicode="&#xa1;" horiz-adv-x="575" d="M131 868q0 69 44 113.5t112 44.5q72 0 114.5 -44t42.5 -114q0 -69 -44 -113t-113 -44q-68 0 -112 44t-44 113zM156 -373l22 922h219l23 -922h-264z" />
<glyph unicode="&#xa2;" d="M150 688q0 196 108 333.5t287 174.5v311h221v-301q160 -15 301 -108l-106 -178q-133 86 -242 86q-133 0 -217 -89t-84 -229t84 -228.5t217 -88.5q114 0 242 86l106 -178q-141 -93 -301 -111v-299h-221v309q-179 38 -287 176.5t-108 333.5z" />
<glyph unicode="&#xa3;" d="M123 0v205h186v399h-153v201h153v186q0 181 125.5 295.5t319.5 114.5q145 0 336 -68l-68 -194q-112 47 -217 47q-98 0 -160.5 -60t-62.5 -155v-166h354v-201h-354v-399h508v-205h-967z" />
<glyph unicode="&#xa4;" d="M66 319l159 160q-53 95 -53 209q0 115 53 207l-159 162l155 155l160 -161q90 55 209 55q117 0 207 -55l161 161l156 -155l-162 -162q56 -91 56 -207q0 -115 -56 -209l162 -160l-156 -155l-161 160q-90 -52 -207 -52q-116 0 -209 52l-160 -160zM373 688q0 -95 61 -156 t156 -61t156 61t61 156t-61 156t-156 61t-156 -61t-61 -156z" />
<glyph unicode="&#xa5;" d="M0 1376h287l303 -530l303 530h287l-387 -620h231v-178h-297v-138h297v-178h-297v-262h-274v262h-297v178h297v138h-297v178h231z" />
<glyph unicode="&#xa6;" horiz-adv-x="491" d="M135 -360v786h221v-786h-221zM135 623v786h221v-786h-221z" />
<glyph unicode="&#xa7;" horiz-adv-x="1112" d="M80 -260l61 205q220 -82 377 -82q101 0 157 38.5t56 108.5q0 36 -22 63.5t-59 45.5t-85.5 33t-101.5 30.5t-106.5 33.5t-102 46t-85.5 64.5t-59 92.5t-22 126q0 80 39 146.5t111 109.5q-117 89 -117 246t125.5 255.5t324.5 98.5q193 0 420 -88l-61 -203q-188 76 -338 76 q-96 0 -150.5 -37.5t-54.5 -101.5q0 -44 35.5 -74.5t92.5 -49t126 -36t137.5 -44.5t125.5 -65t92.5 -106t35.5 -160q0 -79 -37.5 -145.5t-105.5 -112.5q110 -88 110 -244q0 -165 -127 -263.5t-333 -98.5q-218 0 -459 92zM354 557q0 -32 14 -57.5t32.5 -41.5t54 -32 t61.5 -24.5t72.5 -22t70.5 -21.5q48 20 76.5 58.5t28.5 83.5q0 27 -8 49.5t-26.5 39.5t-36 29.5t-49.5 24t-53 18.5t-60.5 18t-59.5 17q-54 -17 -85.5 -54.5t-31.5 -84.5z" />
<glyph unicode="&#xa8;" horiz-adv-x="491" d="M-123 1290q0 63 39 102.5t102 39.5t102.5 -39.5t39.5 -102.5t-39.5 -102t-102.5 -39t-102 39t-39 102zM332 1290q0 63 39 102.5t102 39.5t102 -39.5t39 -102.5t-39 -102t-102 -39t-102 39t-39 102z" />
<glyph unicode="&#xa9;" horiz-adv-x="1703" d="M98 688q0 218 96 390t268 268t390 96t390 -96t268 -268t96 -390t-96 -390t-268 -268t-390 -96t-390 96t-268 268t-96 390zM236 688q0 -179 78 -319.5t218.5 -218.5t319.5 -78t319.5 78t218.5 218.5t78 319.5q0 272 -172.5 444.5t-443.5 172.5t-443.5 -172.5 t-172.5 -444.5zM434 688q0 194 123 318t320 124q169 0 315 -98l-82 -135q-101 70 -207 70q-119 0 -193.5 -77.5t-74.5 -201.5t74.5 -201t193.5 -77q107 0 207 69l82 -135q-146 -98 -315 -98q-197 0 -320 124t-123 318z" />
<glyph unicode="&#xaa;" horiz-adv-x="802" d="M45 444v138h715v-138h-715zM63 913q0 102 84 161t230 59q46 0 123 -15v25q0 56 -36 88.5t-97 32.5q-101 0 -222 -50l-45 132q149 57 285 57q133 0 213 -71.5t80 -192.5v-246q0 -20 11 -31.5t30 -11.5q15 0 31 4l14 -139q-48 -10 -98 -10t-88.5 23t-57.5 63 q-83 -86 -215 -86q-105 0 -173.5 59t-68.5 149zM246 924q0 -38 31 -63t77 -25q63 0 104.5 38.5t41.5 98.5v41q-58 10 -105 10q-70 0 -109.5 -26.5t-39.5 -73.5z" />
<glyph unicode="&#xab;" horiz-adv-x="1191" d="M55 457v114l408 455l153 -123l-309 -389l309 -389l-153 -121zM573 457v114l408 455l154 -123l-310 -389l310 -389l-154 -121z" />
<glyph unicode="&#xac;" d="M90 479v221h1000v-610h-220v389h-780z" />
<glyph unicode="&#xad;" horiz-adv-x="655" d="M70 414v200h565v-200h-565z" />
<glyph unicode="&#xae;" horiz-adv-x="1703" d="M98 688q0 218 96 390t268 268t390 96t390 -96t268 -268t96 -390t-96 -390t-268 -268t-390 -96t-390 96t-268 268t-96 390zM236 688q0 -179 78 -319.5t218.5 -218.5t319.5 -78t319.5 78t218.5 218.5t78 319.5q0 272 -172.5 444.5t-443.5 172.5t-443.5 -172.5 t-172.5 -444.5zM532 262v852h371q131 0 215 -75.5t84 -196.5q0 -95 -50 -162.5t-134 -87.5l213 -330h-209l-182 301h-123v-301h-185zM717 709h162q62 0 99.5 34.5t37.5 92.5t-37.5 93.5t-99.5 35.5h-162v-256z" />
<glyph unicode="&#xaf;" horiz-adv-x="491" d="M-74 1200v178h639v-178h-639z" />
<glyph unicode="&#xb0;" horiz-adv-x="696" d="M78 1128q0 117 76 194t194 77t194 -77t76 -194q0 -118 -76 -194t-194 -76t-194 76t-76 194zM221 1128q0 -57 35.5 -93t91.5 -36q57 0 93 36t36 93q0 56 -36 91.5t-93 35.5t-92 -35.5t-35 -91.5z" />
<glyph unicode="&#xb1;" d="M90 0v221h1000v-221h-1000zM90 723v221h389v391h221v-391h390v-221h-390v-389h-221v389h-389z" />
<glyph unicode="&#xb2;" horiz-adv-x="704" d="M33 1567q157 88 299 88q125 0 203.5 -73.5t78.5 -188.5q0 -139 -120 -256l-197 -197h328v-154h-580v121l289 291q90 87 90 164q0 59 -35.5 94t-95.5 35q-75 0 -187 -66z" />
<glyph unicode="&#xb3;" horiz-adv-x="704" d="M27 840l61 137q117 -57 213 -57q60 0 97.5 31.5t37.5 82.5q0 54 -43.5 88.5t-113.5 34.5h-72v131h72q63 0 103 31.5t40 79.5t-31.5 77t-85.5 29q-90 0 -201 -51l-59 135q147 66 295 66q121 0 196.5 -66.5t75.5 -169.5q0 -68 -32.5 -118.5t-92.5 -73.5q65 -24 105.5 -81 t40.5 -130q0 -109 -82 -177.5t-211 -68.5q-162 0 -313 70z" />
<glyph unicode="&#xb4;" horiz-adv-x="491" d="M80 1239l379 264l116 -168l-395 -239z" />
<glyph unicode="&#xb5;" horiz-adv-x="1280" d="M133 -426v1430h262v-603q0 -93 59 -152t152 -59q106 0 175 73t69 188v553h262v-748q0 -32 20 -52t52 -20q19 0 47 4l20 -198q-81 -15 -139 -15q-84 0 -145 40.5t-84 111.5q-54 -71 -129 -108t-156 -37q-136 0 -203 67v-475h-262z" />
<glyph unicode="&#xb6;" horiz-adv-x="1230" d="M63 932q0 195 136.5 319.5t351.5 124.5h506v-1704h-219v1483h-209v-670h-78q-215 0 -351.5 125t-136.5 322z" />
<glyph unicode="&#xb7;" horiz-adv-x="542" d="M106 514q0 72 46.5 118t117.5 46q72 0 118 -46t46 -118q0 -71 -46 -117.5t-118 -46.5q-70 0 -117 47t-47 117z" />
<glyph unicode="&#xb8;" horiz-adv-x="491" d="M2 -436l45 147q74 -26 135 -26q40 0 65 18.5t25 48.5t-28.5 49t-77.5 19h-27l33 180h180l-16 -90q66 -15 106.5 -65t40.5 -119q0 -89 -76 -144t-198 -55q-111 0 -207 37z" />
<glyph unicode="&#xb9;" horiz-adv-x="573" d="M6 1477l281 161h159v-852h-192v666l-180 -102z" />
<glyph unicode="&#xba;" horiz-adv-x="862" d="M63 1055q0 154 103 251t264 97q163 0 266 -97t103 -251q0 -155 -103 -252.5t-266 -97.5q-162 0 -264.5 97.5t-102.5 252.5zM78 444v138h706v-138h-706zM262 1055q0 -87 47 -142t121 -55q75 0 122.5 54.5t47.5 142.5q0 86 -47.5 141t-122.5 55q-74 0 -121 -55t-47 -141z " />
<glyph unicode="&#xbb;" horiz-adv-x="1191" d="M57 125l308 389l-308 389l154 123l407 -455v-114l-407 -453zM575 125l308 389l-308 389l154 123l408 -455v-114l-408 -453z" />
<glyph unicode="&#xbc;" horiz-adv-x="1966" d="M113 1214l280 162h160v-852h-193v666l-180 -103zM399 51l1033 1376l135 -102l-1032 -1376zM1233 176v133l387 543h182v-537h105v-139h-105v-176h-170v176h-399zM1401 315h231v326z" />
<glyph unicode="&#xbd;" horiz-adv-x="1966" d="M113 1214l280 162h160v-852h-193v666l-180 -103zM399 51l1033 1376l135 -102l-1032 -1376zM1253 780q157 88 299 88q125 0 204 -73.5t79 -188.5q0 -138 -121 -256l-196 -196h327v-154h-579v121l288 291q91 88 91 163q0 59 -36 94.5t-96 35.5q-74 0 -186 -66z" />
<glyph unicode="&#xbe;" horiz-adv-x="1966" d="M68 578l61 137q119 -58 213 -58q60 0 97.5 32t37.5 83q0 54 -44 88.5t-114 34.5h-71v131h71q63 0 103.5 31.5t40.5 79.5t-31.5 77t-85.5 29q-90 0 -201 -51l-59 135q147 66 295 66q121 0 196.5 -66.5t75.5 -169.5q0 -68 -32.5 -118.5t-92.5 -73.5q65 -24 105.5 -81 t40.5 -130q0 -109 -82 -177.5t-211 -68.5q-162 0 -313 70zM399 51l1033 1376l135 -102l-1032 -1376zM1233 176v133l387 543h182v-537h105v-139h-105v-176h-170v176h-399zM1401 315h231v326z" />
<glyph unicode="&#xbf;" horiz-adv-x="827" d="M68 -25q0 82 30.5 153t75 121.5t89.5 95t80 92.5t40 95l4 17h219v-39q0 -66 -28.5 -125t-69 -102t-81 -84t-69 -89t-28.5 -98q0 -84 56 -136t146 -52q106 0 261 94l100 -186q-195 -129 -404 -129q-185 0 -303 105t-118 267zM338 868q0 69 44.5 113.5t113.5 44.5 t113 -44.5t44 -113.5t-44 -113t-113 -44t-113.5 44t-44.5 113z" />
<glyph unicode="&#xc0;" horiz-adv-x="1394" d="M8 0l563 1376h252l563 -1376h-274l-127 328h-575l-127 -328h-275zM389 1708l117 168l379 -264l-101 -144zM483 526h430l-215 551z" />
<glyph unicode="&#xc1;" horiz-adv-x="1394" d="M8 0l563 1376h252l563 -1376h-274l-127 328h-575l-127 -328h-275zM483 526h430l-215 551zM532 1612l379 264l117 -168l-395 -240z" />
<glyph unicode="&#xc2;" horiz-adv-x="1394" d="M8 0l563 1376h252l563 -1376h-274l-127 328h-575l-127 -328h-275zM362 1591l256 244h160l256 -244l-112 -123l-224 189l-223 -189zM483 526h430l-215 551z" />
<glyph unicode="&#xc3;" horiz-adv-x="1394" d="M8 0l563 1376h252l563 -1376h-274l-127 328h-575l-127 -328h-275zM352 1583q15 93 73.5 149t141.5 56q56 0 137 -36t105 -36q52 0 78 72l157 -47q-15 -92 -73.5 -147.5t-141.5 -55.5q-56 0 -136.5 36t-104.5 36q-28 0 -48.5 -19t-29.5 -53zM483 526h430l-215 551z" />
<glyph unicode="&#xc4;" horiz-adv-x="1394" d="M8 0l563 1376h252l563 -1376h-274l-127 328h-575l-127 -328h-275zM338 1663q0 63 39 102t102 39t102.5 -39t39.5 -102t-39.5 -102t-102.5 -39t-102 39t-39 102zM483 526h430l-215 551zM793 1663q0 63 39 102t102 39t102 -39t39 -102t-39 -102t-102 -39t-102 39t-39 102z " />
<glyph unicode="&#xc5;" horiz-adv-x="1394" d="M8 0l563 1376h252l563 -1376h-274l-127 328h-575l-127 -328h-275zM477 1663q0 94 61.5 152.5t159.5 58.5t160 -58.5t62 -152.5t-61 -152.5t-159 -58.5t-160.5 58.5t-62.5 152.5zM483 526h430l-215 551zM602 1663q0 -43 27.5 -69.5t70.5 -26.5q42 0 68.5 26.5t26.5 69.5 q0 42 -27.5 68t-69.5 26q-43 0 -69.5 -25.5t-26.5 -68.5z" />
<glyph unicode="&#xc6;" horiz-adv-x="2007" d="M-51 0l887 1376h1050v-205h-665v-366h600v-201h-600v-399h698v-205h-961v328h-495l-207 -328h-307zM578 526h380v609z" />
<glyph unicode="&#xc7;" horiz-adv-x="1331" d="M80 688q0 208 89 370.5t250 252.5t367 90q255 0 494 -156l-111 -182q-175 121 -348 121q-206 0 -335.5 -138t-129.5 -358t129.5 -357.5t335.5 -137.5q174 0 348 120l111 -182q-199 -130 -414 -149l-12 -72q66 -15 106.5 -65t40.5 -119q0 -89 -76 -144t-198 -55 q-109 0 -205 37l43 147q74 -26 135 -26q40 0 65.5 18.5t25.5 48.5t-29 49t-76 19h-29l31 164q-274 29 -441 221.5t-167 482.5z" />
<glyph unicode="&#xc8;" horiz-adv-x="1232" d="M172 0v1376h940v-205h-668v-366h603v-201h-603v-399h701v-205h-973zM324 1708l116 168l379 -264l-100 -144z" />
<glyph unicode="&#xc9;" horiz-adv-x="1232" d="M172 0v1376h940v-205h-668v-366h603v-201h-603v-399h701v-205h-973zM467 1612l379 264l117 -168l-396 -240z" />
<glyph unicode="&#xca;" horiz-adv-x="1232" d="M172 0v1376h940v-205h-668v-366h603v-201h-603v-399h701v-205h-973zM297 1591l256 244h160l256 -244l-113 -123l-223 189l-223 -189z" />
<glyph unicode="&#xcb;" horiz-adv-x="1232" d="M172 0v1376h940v-205h-668v-366h603v-201h-603v-399h701v-205h-973zM264 1663q0 63 39.5 102t102.5 39t102 -39t39 -102t-39 -102t-102 -39t-102.5 39t-39.5 102zM719 1663q0 63 39 102t102 39t102 -39t39 -102t-39 -102t-102 -39t-102 39t-39 102z" />
<glyph unicode="&#xcc;" horiz-adv-x="618" d="M0 1708l117 168l379 -264l-101 -144zM172 0v1376h272v-1376h-272z" />
<glyph unicode="&#xcd;" horiz-adv-x="618" d="M143 1612l379 264l117 -168l-395 -240zM172 0v1376h272v-1376h-272z" />
<glyph unicode="&#xce;" horiz-adv-x="618" d="M-27 1591l256 244h160l256 -244l-113 -123l-223 189l-223 -189zM172 0v1376h272v-1376h-272z" />
<glyph unicode="&#xcf;" horiz-adv-x="618" d="M-59 1663q0 63 39 102t102 39t102 -39t39 -102t-39 -102t-102 -39t-102 39t-39 102zM172 0v1376h272v-1376h-272zM395 1663q0 63 39.5 102t102.5 39t102 -39t39 -102t-39 -102t-102 -39t-102.5 39t-39.5 102z" />
<glyph unicode="&#xd0;" horiz-adv-x="1525" d="M45 604v201h160v571h534q317 0 513 -190.5t196 -497.5q0 -201 -88.5 -357.5t-250.5 -243.5t-370 -87h-534v604h-160zM467 209h252q203 0 332 134t129 345t-129 345t-332 134h-252v-362h317v-201h-317v-395z" />
<glyph unicode="&#xd1;" horiz-adv-x="1591" d="M172 0v1376h264l731 -1003v1003h252v-1376h-264l-731 1004v-1004h-252zM451 1583q15 93 73.5 149t141.5 56q56 0 136.5 -36t104.5 -36q52 0 78 72l158 -47q-15 -92 -73.5 -147.5t-141.5 -55.5q-56 0 -137 36t-105 36q-28 0 -48.5 -19t-29.5 -53z" />
<glyph unicode="&#xd2;" horiz-adv-x="1591" d="M80 688q0 155 53 287.5t147 226t227.5 146.5t289.5 53q207 0 370.5 -90.5t254.5 -253t91 -369.5t-91 -369.5t-254.5 -253t-370.5 -90.5q-156 0 -289.5 53t-227.5 146.5t-147 226t-53 287.5zM356 688q0 -218 124 -358t317 -140t315.5 139.5t122.5 358.5t-122.5 358.5 t-315.5 139.5t-317 -140t-124 -358zM487 1708l117 168l379 -264l-100 -144z" />
<glyph unicode="&#xd3;" horiz-adv-x="1591" d="M80 688q0 155 53 287.5t147 226t227.5 146.5t289.5 53q207 0 370.5 -90.5t254.5 -253t91 -369.5t-91 -369.5t-254.5 -253t-370.5 -90.5q-156 0 -289.5 53t-227.5 146.5t-147 226t-53 287.5zM356 688q0 -218 124 -358t317 -140t315.5 139.5t122.5 358.5t-122.5 358.5 t-315.5 139.5t-317 -140t-124 -358zM631 1612l379 264l116 -168l-395 -240z" />
<glyph unicode="&#xd4;" horiz-adv-x="1591" d="M80 688q0 155 53 287.5t147 226t227.5 146.5t289.5 53q207 0 370.5 -90.5t254.5 -253t91 -369.5t-91 -369.5t-254.5 -253t-370.5 -90.5q-156 0 -289.5 53t-227.5 146.5t-147 226t-53 287.5zM356 688q0 -218 124 -358t317 -140t315.5 139.5t122.5 358.5t-122.5 358.5 t-315.5 139.5t-317 -140t-124 -358zM461 1591l256 244h160l256 -244l-113 -123l-223 189l-224 -189z" />
<glyph unicode="&#xd5;" horiz-adv-x="1591" d="M80 688q0 155 53 287.5t147 226t227.5 146.5t289.5 53q207 0 370.5 -90.5t254.5 -253t91 -369.5t-91 -369.5t-254.5 -253t-370.5 -90.5q-156 0 -289.5 53t-227.5 146.5t-147 226t-53 287.5zM356 688q0 -218 124 -358t317 -140t315.5 139.5t122.5 358.5t-122.5 358.5 t-315.5 139.5t-317 -140t-124 -358zM451 1583q15 93 73.5 149t141.5 56q56 0 136.5 -36t104.5 -36q52 0 78 72l158 -47q-15 -92 -73.5 -147.5t-141.5 -55.5q-56 0 -137 36t-105 36q-28 0 -48.5 -19t-29.5 -53z" />
<glyph unicode="&#xd6;" horiz-adv-x="1591" d="M80 688q0 155 53 287.5t147 226t227.5 146.5t289.5 53q207 0 370.5 -90.5t254.5 -253t91 -369.5t-91 -369.5t-254.5 -253t-370.5 -90.5q-156 0 -289.5 53t-227.5 146.5t-147 226t-53 287.5zM356 688q0 -218 124 -358t317 -140t315.5 139.5t122.5 358.5t-122.5 358.5 t-315.5 139.5t-317 -140t-124 -358zM428 1663q0 63 39 102t102 39t102.5 -39t39.5 -102t-39.5 -102t-102.5 -39t-102 39t-39 102zM883 1663q0 63 39 102t102 39t102 -39t39 -102t-39 -102t-102 -39t-102 39t-39 102z" />
<glyph unicode="&#xd7;" d="M113 266l321 324l-321 323l153 154l324 -322l323 322l154 -154l-322 -323l322 -324l-154 -153l-323 321l-324 -321z" />
<glyph unicode="&#xd8;" horiz-adv-x="1591" d="M80 688q0 155 53 287.5t147 226t227.5 146.5t289.5 53q199 0 362 -94l109 143l127 -96l-103 -135q105 -95 163 -232t58 -299q0 -207 -90.5 -369.5t-254 -253t-371.5 -90.5q-200 0 -367 95l-106 -144l-127 97l100 133q-104 96 -160.5 233t-56.5 299zM336 688 q0 -206 108 -336l584 776q-104 68 -231 68q-204 0 -332.5 -142t-128.5 -366zM565 246q101 -66 232 -66q202 0 330 142t128 366q0 199 -108 336z" />
<glyph unicode="&#xd9;" horiz-adv-x="1591" d="M156 539v837h272v-827q0 -158 103.5 -258.5t265.5 -100.5q160 0 263 100.5t103 258.5v827h273v-837q0 -165 -82 -293.5t-227.5 -199.5t-329.5 -71t-330 71t-228.5 200t-82.5 293zM487 1708l117 168l379 -264l-100 -144z" />
<glyph unicode="&#xda;" horiz-adv-x="1591" d="M156 539v837h272v-827q0 -158 103.5 -258.5t265.5 -100.5q160 0 263 100.5t103 258.5v827h273v-837q0 -165 -82 -293.5t-227.5 -199.5t-329.5 -71t-330 71t-228.5 200t-82.5 293zM631 1612l379 264l116 -168l-395 -240z" />
<glyph unicode="&#xdb;" horiz-adv-x="1591" d="M156 539v837h272v-827q0 -158 103.5 -258.5t265.5 -100.5q160 0 263 100.5t103 258.5v827h273v-837q0 -165 -82 -293.5t-227.5 -199.5t-329.5 -71t-330 71t-228.5 200t-82.5 293zM461 1591l256 244h160l256 -244l-113 -123l-223 189l-224 -189z" />
<glyph unicode="&#xdc;" horiz-adv-x="1591" d="M156 539v837h272v-827q0 -158 103.5 -258.5t265.5 -100.5q160 0 263 100.5t103 258.5v827h273v-837q0 -165 -82 -293.5t-227.5 -199.5t-329.5 -71t-330 71t-228.5 200t-82.5 293zM428 1663q0 63 39 102t102 39t102.5 -39t39.5 -102t-39.5 -102t-102.5 -39t-102 39 t-39 102zM883 1663q0 63 39 102t102 39t102 -39t39 -102t-39 -102t-102 -39t-102 39t-39 102z" />
<glyph unicode="&#xdd;" horiz-adv-x="1263" d="M-8 1376h297l342 -575l344 575h295l-502 -817v-559h-272v559zM465 1612l379 264l117 -168l-396 -240z" />
<glyph unicode="&#xde;" horiz-adv-x="1286" d="M172 0v1376h262v-219h301q215 0 352.5 -126.5t137.5 -325.5t-137.5 -326t-352.5 -127h-301v-252h-262zM434 461h260q117 0 189.5 68t72.5 176q0 106 -73 174.5t-189 68.5h-260v-487z" />
<glyph unicode="&#xdf;" horiz-adv-x="1296" d="M133 0v1067q0 179 128.5 289t336.5 110q188 0 310 -99.5t122 -250.5q0 -53 -16 -99t-38 -79t-44.5 -63t-38.5 -62.5t-16 -64.5q0 -37 20 -66t52 -49.5t70.5 -41t77 -46.5t70.5 -58.5t52 -83.5t20 -116q0 -140 -107.5 -226t-277.5 -86q-155 0 -324 72l68 186 q133 -59 236 -59q70 0 111.5 30.5t41.5 82.5q0 33 -20.5 59.5t-53.5 46.5t-73 39.5t-79.5 45t-72.5 57t-53.5 81t-20.5 111.5q0 59 24 113t53 89t53 82.5t24 94.5q0 70 -49.5 116t-130.5 46q-90 0 -146.5 -58t-56.5 -153v-1057h-252z" />
<glyph unicode="&#xe0;" horiz-adv-x="1144" d="M74 291q0 158 122 246t341 88q95 0 194 -21v53q0 77 -57 127t-150 50q-150 0 -329 -72l-66 182q221 84 426 84q190 0 306 -103.5t116 -271.5v-407q0 -32 19 -52t51 -20q27 0 51 6l18 -190q-81 -15 -139 -15q-76 0 -132 36t-83 100q-65 -65 -151.5 -100.5t-178.5 -35.5 q-157 0 -257.5 89t-100.5 227zM246 1335l116 168l379 -264l-100 -143zM326 305q0 -61 50 -103t124 -42q104 0 167.5 65t63.5 168v60q-76 20 -164 20q-112 0 -176.5 -45t-64.5 -123z" />
<glyph unicode="&#xe1;" horiz-adv-x="1144" d="M74 291q0 158 122 246t341 88q95 0 194 -21v53q0 77 -57 127t-150 50q-150 0 -329 -72l-66 182q221 84 426 84q190 0 306 -103.5t116 -271.5v-407q0 -32 19 -52t51 -20q27 0 51 6l18 -190q-81 -15 -139 -15q-76 0 -132 36t-83 100q-65 -65 -151.5 -100.5t-178.5 -35.5 q-157 0 -257.5 89t-100.5 227zM326 305q0 -61 50 -103t124 -42q104 0 167.5 65t63.5 168v60q-76 20 -164 20q-112 0 -176.5 -45t-64.5 -123zM389 1239l379 264l117 -168l-396 -239z" />
<glyph unicode="&#xe2;" horiz-adv-x="1144" d="M74 291q0 158 122 246t341 88q95 0 194 -21v53q0 77 -57 127t-150 50q-150 0 -329 -72l-66 182q221 84 426 84q190 0 306 -103.5t116 -271.5v-407q0 -32 19 -52t51 -20q27 0 51 6l18 -190q-81 -15 -139 -15q-76 0 -132 36t-83 100q-65 -65 -151.5 -100.5t-178.5 -35.5 q-157 0 -257.5 89t-100.5 227zM219 1219l256 243h160l256 -243l-113 -123l-223 188l-223 -188zM326 305q0 -61 50 -103t124 -42q104 0 167.5 65t63.5 168v60q-76 20 -164 20q-112 0 -176.5 -45t-64.5 -123z" />
<glyph unicode="&#xe3;" horiz-adv-x="1144" d="M74 291q0 158 122 246t341 88q95 0 194 -21v53q0 77 -57 127t-150 50q-150 0 -329 -72l-66 182q221 84 426 84q190 0 306 -103.5t116 -271.5v-407q0 -32 19 -52t51 -20q27 0 51 6l18 -190q-81 -15 -139 -15q-76 0 -132 36t-83 100q-65 -65 -151.5 -100.5t-178.5 -35.5 q-157 0 -257.5 89t-100.5 227zM209 1210q15 93 73.5 149t141.5 56q56 0 137 -36t105 -36q51 0 77 72l158 -47q-15 -92 -73.5 -147.5t-141.5 -55.5q-56 0 -137 36t-105 36q-28 0 -48 -19t-29 -53zM326 305q0 -61 50 -103t124 -42q104 0 167.5 65t63.5 168v60q-76 20 -164 20 q-112 0 -176.5 -45t-64.5 -123z" />
<glyph unicode="&#xe4;" horiz-adv-x="1144" d="M74 291q0 158 122 246t341 88q95 0 194 -21v53q0 77 -57 127t-150 50q-150 0 -329 -72l-66 182q221 84 426 84q190 0 306 -103.5t116 -271.5v-407q0 -32 19 -52t51 -20q27 0 51 6l18 -190q-81 -15 -139 -15q-76 0 -132 36t-83 100q-65 -65 -151.5 -100.5t-178.5 -35.5 q-157 0 -257.5 89t-100.5 227zM186 1290q0 63 39.5 102.5t102.5 39.5t102 -39.5t39 -102.5t-39 -102t-102 -39t-102.5 39t-39.5 102zM326 305q0 -61 50 -103t124 -42q104 0 167.5 65t63.5 168v60q-76 20 -164 20q-112 0 -176.5 -45t-64.5 -123zM641 1290q0 63 39 102.5 t102 39.5t102.5 -39.5t39.5 -102.5t-39.5 -102t-102.5 -39t-102 39t-39 102z" />
<glyph unicode="&#xe5;" horiz-adv-x="1144" d="M74 291q0 158 122 246t341 88q95 0 194 -21v53q0 77 -57 127t-150 50q-150 0 -329 -72l-66 182q221 84 426 84q190 0 306 -103.5t116 -271.5v-407q0 -32 19 -52t51 -20q27 0 51 6l18 -190q-81 -15 -139 -15q-76 0 -132 36t-83 100q-65 -65 -151.5 -100.5t-178.5 -35.5 q-157 0 -257.5 89t-100.5 227zM326 305q0 -61 50 -103t124 -42q104 0 167.5 65t63.5 168v60q-76 20 -164 20q-112 0 -176.5 -45t-64.5 -123zM334 1290q0 94 61.5 152.5t159.5 58.5t159.5 -58.5t61.5 -152.5t-60.5 -152.5t-158.5 -58.5t-160.5 58.5t-62.5 152.5zM459 1290 q0 -43 27.5 -69.5t70.5 -26.5q41 0 67.5 26.5t26.5 69.5q0 42 -27 68t-69 26q-43 0 -69.5 -25.5t-26.5 -68.5z" />
<glyph unicode="&#xe6;" horiz-adv-x="1769" d="M74 285q0 161 122 250.5t341 89.5q95 0 194 -21v53q0 77 -57 127t-150 50q-150 0 -329 -72l-66 182q221 84 426 84q111 0 197 -41.5t120 -109.5q64 73 157.5 112t201.5 39q214 0 347.5 -141t133.5 -367q0 -57 -4 -84h-731q15 -120 101.5 -193t215.5 -73q138 0 291 84 l78 -178q-195 -101 -395 -101q-128 0 -240.5 52.5t-187.5 148.5q-64 -95 -165 -148t-222 -53q-166 0 -272.5 87.5t-106.5 222.5zM326 305q0 -61 50 -103t124 -42q104 0 167.5 65t63.5 168v60q-76 20 -164 20q-112 0 -176.5 -45t-64.5 -123zM977 594h485q-8 108 -71 174 t-160 66q-102 0 -171 -66t-83 -174z" />
<glyph unicode="&#xe7;" horiz-adv-x="1024" d="M74 502q0 232 148.5 379t381.5 147q203 0 385 -117l-106 -176q-130 84 -242 84q-132 0 -216.5 -89t-84.5 -228t84.5 -228.5t216.5 -89.5q109 0 242 86l106 -178q-147 -95 -309 -110l-12 -72q66 -15 106.5 -65t40.5 -119q0 -89 -76 -144t-198 -55q-109 0 -205 37l43 147 q74 -26 135 -26q39 0 64.5 18t25.5 49q0 30 -28.5 49t-75.5 19h-27l29 166q-193 28 -310.5 169t-117.5 347z" />
<glyph unicode="&#xe8;" horiz-adv-x="1128" d="M74 502q0 232 143.5 379t370.5 147q214 0 348.5 -141t134.5 -367q0 -30 -4 -84h-731q13 -120 100.5 -193t216.5 -73q136 0 289 84l80 -178q-203 -101 -401 -101q-242 0 -394.5 147.5t-152.5 379.5zM279 1335l116 168l379 -264l-100 -143zM336 594h483q-6 108 -69.5 174 t-161.5 66q-101 0 -170.5 -66.5t-81.5 -173.5z" />
<glyph unicode="&#xe9;" horiz-adv-x="1128" d="M74 502q0 232 143.5 379t370.5 147q214 0 348.5 -141t134.5 -367q0 -30 -4 -84h-731q13 -120 100.5 -193t216.5 -73q136 0 289 84l80 -178q-203 -101 -401 -101q-242 0 -394.5 147.5t-152.5 379.5zM336 594h483q-6 108 -69.5 174t-161.5 66q-101 0 -170.5 -66.5 t-81.5 -173.5zM422 1239l379 264l117 -168l-396 -239z" />
<glyph unicode="&#xea;" horiz-adv-x="1128" d="M74 502q0 232 143.5 379t370.5 147q214 0 348.5 -141t134.5 -367q0 -30 -4 -84h-731q13 -120 100.5 -193t216.5 -73q136 0 289 84l80 -178q-203 -101 -401 -101q-242 0 -394.5 147.5t-152.5 379.5zM252 1219l256 243h160l256 -243l-113 -123l-223 188l-223 -188zM336 594 h483q-6 108 -69.5 174t-161.5 66q-101 0 -170.5 -66.5t-81.5 -173.5z" />
<glyph unicode="&#xeb;" horiz-adv-x="1128" d="M74 502q0 232 143.5 379t370.5 147q214 0 348.5 -141t134.5 -367q0 -30 -4 -84h-731q13 -120 100.5 -193t216.5 -73q136 0 289 84l80 -178q-203 -101 -401 -101q-242 0 -394.5 147.5t-152.5 379.5zM219 1290q0 63 39 102.5t102 39.5t102.5 -39.5t39.5 -102.5t-39.5 -102 t-102.5 -39t-102 39t-39 102zM336 594h483q-6 108 -69.5 174t-161.5 66q-101 0 -170.5 -66.5t-81.5 -173.5zM674 1290q0 63 39 102.5t102 39.5t102 -39.5t39 -102.5t-39 -102t-102 -39t-102 39t-39 102z" />
<glyph unicode="&#xec;" horiz-adv-x="530" d="M-45 1335l117 168l379 -264l-101 -143zM133 0v1004h262v-1004h-262z" />
<glyph unicode="&#xed;" horiz-adv-x="530" d="M98 1239l379 264l117 -168l-395 -239zM133 0v1004h262v-1004h-262z" />
<glyph unicode="&#xee;" horiz-adv-x="530" d="M-72 1219l256 243h160l256 -243l-113 -123l-223 188l-223 -188zM133 0v1004h262v-1004h-262z" />
<glyph unicode="&#xef;" horiz-adv-x="530" d="M-104 1290q0 63 39 102.5t102 39.5t102 -39.5t39 -102.5t-39 -102t-102 -39t-102 39t-39 102zM133 0v1004h262v-1004h-262zM350 1290q0 63 39.5 102.5t102.5 39.5t102 -39.5t39 -102.5t-39 -102t-102 -39t-102.5 39t-39.5 102z" />
<glyph unicode="&#xf0;" horiz-adv-x="1230" d="M74 498q0 223 135 361t348 138q144 0 250 -86q-59 162 -207 267l-258 -129l-68 135l154 76q-57 29 -121 53l58 176q169 -42 297 -113l227 113l67 -135l-147 -74q152 -121 237.5 -287.5t92.5 -361.5q3 -67 -6 -131q-25 -235 -174.5 -380t-370.5 -145q-226 0 -370 146.5 t-144 376.5zM330 485q0 -139 74.5 -227t193.5 -88q122 0 199 91t77 237q0 135 -77 220t-199 85q-119 0 -193.5 -88.5t-74.5 -229.5z" />
<glyph unicode="&#xf1;" horiz-adv-x="1230" d="M133 0v1004h209l33 -146q57 82 147 126t199 44q172 0 281.5 -107t109.5 -276v-645h-262v604q0 92 -59 150.5t-150 58.5q-107 0 -176.5 -72.5t-69.5 -187.5v-553h-262zM268 1210q15 93 73.5 149t141.5 56q56 0 137 -36t105 -36q52 0 78 72l158 -47q-15 -92 -74 -147.5 t-142 -55.5q-56 0 -136.5 36t-104.5 36q-28 0 -48.5 -19t-29.5 -53z" />
<glyph unicode="&#xf2;" horiz-adv-x="1230" d="M74 502q0 232 151 379t389 147q239 0 391 -147t152 -379t-152 -379.5t-391 -147.5q-238 0 -389 147.5t-151 379.5zM305 1335l117 168l379 -264l-101 -143zM340 502q0 -141 77 -231.5t197 -90.5q121 0 199 90.5t78 231.5q0 142 -77.5 231.5t-199.5 89.5q-120 0 -197 -89.5 t-77 -231.5z" />
<glyph unicode="&#xf3;" horiz-adv-x="1230" d="M74 502q0 232 151 379t389 147q239 0 391 -147t152 -379t-152 -379.5t-391 -147.5q-238 0 -389 147.5t-151 379.5zM340 502q0 -141 77 -231.5t197 -90.5q121 0 199 90.5t78 231.5q0 142 -77.5 231.5t-199.5 89.5q-120 0 -197 -89.5t-77 -231.5zM449 1239l378 264 l117 -168l-395 -239z" />
<glyph unicode="&#xf4;" horiz-adv-x="1230" d="M74 502q0 232 151 379t389 147q239 0 391 -147t152 -379t-152 -379.5t-391 -147.5q-238 0 -389 147.5t-151 379.5zM279 1219l256 243h159l256 -243l-112 -123l-224 188l-223 -188zM340 502q0 -141 77 -231.5t197 -90.5q121 0 199 90.5t78 231.5q0 142 -77.5 231.5 t-199.5 89.5q-120 0 -197 -89.5t-77 -231.5z" />
<glyph unicode="&#xf5;" horiz-adv-x="1230" d="M74 502q0 232 151 379t389 147q239 0 391 -147t152 -379t-152 -379.5t-391 -147.5q-238 0 -389 147.5t-151 379.5zM268 1210q15 93 73.5 149t141.5 56q56 0 137 -36t105 -36q52 0 78 72l158 -47q-15 -92 -74 -147.5t-142 -55.5q-56 0 -136.5 36t-104.5 36 q-28 0 -48.5 -19t-29.5 -53zM340 502q0 -141 77 -231.5t197 -90.5q121 0 199 90.5t78 231.5q0 142 -77.5 231.5t-199.5 89.5q-120 0 -197 -89.5t-77 -231.5z" />
<glyph unicode="&#xf6;" horiz-adv-x="1230" d="M74 502q0 232 151 379t389 147q239 0 391 -147t152 -379t-152 -379.5t-391 -147.5q-238 0 -389 147.5t-151 379.5zM246 1290q0 63 39 102.5t102 39.5t102 -39.5t39 -102.5t-39 -102t-102 -39t-102 39t-39 102zM340 502q0 -141 77 -231.5t197 -90.5q121 0 199 90.5 t78 231.5q0 142 -77.5 231.5t-199.5 89.5q-120 0 -197 -89.5t-77 -231.5zM700 1290q0 63 39.5 102.5t102.5 39.5t102 -39.5t39 -102.5t-39 -102t-102 -39t-102.5 39t-39.5 102z" />
<glyph unicode="&#xf7;" d="M90 489v201h1000v-201h-1000zM451 197q0 61 38.5 100t100.5 39t100.5 -39t38.5 -100q0 -62 -39 -101t-100 -39t-100 39t-39 101zM451 983q0 61 38.5 100t100.5 39q63 0 101 -37t38 -102q0 -61 -38.5 -100t-100.5 -39t-100.5 39t-38.5 100z" />
<glyph unicode="&#xf8;" horiz-adv-x="1230" d="M74 502q0 232 151 379t389 147q146 0 260 -63l82 106l111 -82l-74 -98q164 -151 164 -389q0 -232 -152 -379.5t-391 -147.5q-144 0 -260 64l-80 -107l-110 84l72 95q-162 149 -162 391zM319 502q0 -115 60 -201l369 494q-58 39 -134 39q-130 0 -212.5 -92.5t-82.5 -239.5 zM481 209q58 -39 133 -39q131 0 214 92.5t83 239.5q0 118 -61 198z" />
<glyph unicode="&#xf9;" horiz-adv-x="1230" d="M117 358v646h262v-603q0 -93 59 -152t152 -59q106 0 175 73t69 188v553h262v-1004h-209l-33 145q-55 -82 -145 -126t-199 -44q-172 0 -282.5 107.5t-110.5 275.5zM305 1335l117 168l379 -264l-101 -143z" />
<glyph unicode="&#xfa;" horiz-adv-x="1230" d="M117 358v646h262v-603q0 -93 59 -152t152 -59q106 0 175 73t69 188v553h262v-1004h-209l-33 145q-55 -82 -145 -126t-199 -44q-172 0 -282.5 107.5t-110.5 275.5zM449 1239l378 264l117 -168l-395 -239z" />
<glyph unicode="&#xfb;" horiz-adv-x="1230" d="M117 358v646h262v-603q0 -93 59 -152t152 -59q106 0 175 73t69 188v553h262v-1004h-209l-33 145q-55 -82 -145 -126t-199 -44q-172 0 -282.5 107.5t-110.5 275.5zM279 1219l256 243h159l256 -243l-112 -123l-224 188l-223 -188z" />
<glyph unicode="&#xfc;" horiz-adv-x="1230" d="M117 358v646h262v-603q0 -93 59 -152t152 -59q106 0 175 73t69 188v553h262v-1004h-209l-33 145q-55 -82 -145 -126t-199 -44q-172 0 -282.5 107.5t-110.5 275.5zM246 1290q0 63 39 102.5t102 39.5t102 -39.5t39 -102.5t-39 -102t-102 -39t-102 39t-39 102zM700 1290 q0 63 39.5 102.5t102.5 39.5t102 -39.5t39 -102.5t-39 -102t-102 -39t-102.5 39t-39.5 102z" />
<glyph unicode="&#xfd;" horiz-adv-x="1099" d="M18 1004h275l260 -707l254 707h272l-446 -1117q-68 -171 -166.5 -254.5t-235.5 -83.5q-65 0 -155 19l35 205q66 -15 96 -15q67 0 110.5 38.5t79.5 127.5l35 88zM383 1239l379 264l117 -168l-396 -239z" />
<glyph unicode="&#xfe;" horiz-adv-x="1230" d="M133 -426v1868h262v-551q112 137 301 137q203 0 332 -147t129 -379t-129 -379.5t-332 -147.5q-189 0 -301 140v-541h-262zM391 434q0 -109 67 -180.5t171 -71.5q115 0 188.5 90t73.5 230q0 141 -73 230t-189 89q-104 0 -171 -71t-67 -181v-135z" />
<glyph unicode="&#xff;" horiz-adv-x="1099" d="M18 1004h275l260 -707l254 707h272l-446 -1117q-68 -171 -166.5 -254.5t-235.5 -83.5q-65 0 -155 19l35 205q66 -15 96 -15q67 0 110.5 38.5t79.5 127.5l35 88zM180 1290q0 63 39.5 102.5t102.5 39.5t102 -39.5t39 -102.5t-39 -102t-102 -39t-102.5 39t-39.5 102z M635 1290q0 63 39 102.5t102 39.5t102.5 -39.5t39.5 -102.5t-39.5 -102t-102.5 -39t-102 39t-39 102z" />
<glyph unicode="&#x152;" horiz-adv-x="2064" d="M80 688q0 306 193 497t505 191h1164v-205h-666v-366h600v-201h-600v-399h698v-205h-1196q-313 0 -505.5 190t-192.5 498zM356 688q0 -210 127.5 -344.5t325.5 -134.5h195v958h-195q-198 0 -325.5 -134.5t-127.5 -344.5z" />
<glyph unicode="&#x153;" horiz-adv-x="1949" d="M74 502q0 232 151 379t389 147q130 0 238 -56t172 -153q66 98 166.5 153.5t220.5 55.5q213 0 347 -141.5t134 -366.5q0 -57 -4 -84h-731q15 -120 102 -193t216 -73q138 0 288 84l80 -178q-203 -101 -399 -101q-133 0 -242.5 56.5t-175.5 158.5q-66 -100 -173.5 -157.5 t-238.5 -57.5q-238 0 -389 147.5t-151 379.5zM340 502q0 -141 77 -231.5t197 -90.5q121 0 199 90.5t78 231.5q0 142 -77.5 231.5t-199.5 89.5q-120 0 -197 -89.5t-77 -231.5zM1157 594h485q-8 108 -71 174t-160 66q-102 0 -171 -66t-83 -174z" />
<glyph unicode="&#x178;" horiz-adv-x="1263" d="M-8 1376h297l342 -575l344 575h295l-502 -817v-559h-272v559zM262 1663q0 63 39 102t102 39t102.5 -39t39.5 -102t-39.5 -102t-102.5 -39t-102 39t-39 102zM717 1663q0 63 39 102t102 39t102 -39t39 -102t-39 -102t-102 -39t-102 39t-39 102z" />
<glyph unicode="&#x2c6;" horiz-adv-x="491" d="M-90 1219l256 243h160l256 -243l-113 -123l-223 188l-223 -188z" />
<glyph unicode="&#x2dc;" horiz-adv-x="491" d="M-100 1210q15 93 73.5 149t141.5 56q56 0 136.5 -36t104.5 -36q52 0 78 72l158 -47q-15 -92 -73.5 -147.5t-141.5 -55.5q-56 0 -137 36t-105 36q-28 0 -48.5 -19t-29.5 -53z" />
<glyph unicode="&#x2000;" horiz-adv-x="938" />
<glyph unicode="&#x2001;" horiz-adv-x="1876" />
<glyph unicode="&#x2002;" horiz-adv-x="938" />
<glyph unicode="&#x2003;" horiz-adv-x="1876" />
<glyph unicode="&#x2004;" horiz-adv-x="625" />
<glyph unicode="&#x2005;" horiz-adv-x="469" />
<glyph unicode="&#x2006;" horiz-adv-x="312" />
<glyph unicode="&#x2007;" horiz-adv-x="312" />
<glyph unicode="&#x2008;" horiz-adv-x="234" />
<glyph unicode="&#x2009;" horiz-adv-x="375" />
<glyph unicode="&#x200a;" horiz-adv-x="104" />
<glyph unicode="&#x2010;" horiz-adv-x="655" d="M45 414v200h565v-200h-565z" />
<glyph unicode="&#x2011;" horiz-adv-x="655" d="M45 414v200h565v-200h-565z" />
<glyph unicode="&#x2012;" horiz-adv-x="655" d="M45 414v200h565v-200h-565z" />
<glyph unicode="&#x2013;" horiz-adv-x="983" d="M45 414v200h893v-200h-893z" />
<glyph unicode="&#x2014;" horiz-adv-x="1966" d="M45 414v200h1876v-200h-1876z" />
<glyph unicode="&#x2018;" horiz-adv-x="542" d="M102 983q0 127 69 240t194 190l79 -102q-122 -98 -149 -215q62 -6 100.5 -48.5t38.5 -103.5q0 -71 -46 -117.5t-118 -46.5q-75 0 -121.5 56t-46.5 147z" />
<glyph unicode="&#x2019;" horiz-adv-x="542" d="M98 872q124 102 150 215q-62 6 -102 48.5t-40 103.5q0 71 46 117.5t118 46.5q75 0 122.5 -56t47.5 -145q0 -128 -69 -242t-193 -190z" />
<glyph unicode="&#x201a;" horiz-adv-x="477" d="M98 -225q124 102 150 215q-62 6 -102 48t-40 103q0 71 46 117.5t118 46.5q75 0 122.5 -56t47.5 -145q0 -128 -69 -242t-193 -190z" />
<glyph unicode="&#x201c;" horiz-adv-x="995" d="M102 983q0 127 69 240t194 190l79 -102q-122 -98 -149 -215q62 -6 100.5 -48.5t38.5 -103.5q0 -71 -46 -117.5t-118 -46.5q-75 0 -121.5 56t-46.5 147zM557 983q0 128 69 241t193 189l80 -102q-122 -98 -149 -215q62 -6 100.5 -48.5t38.5 -103.5q0 -71 -46 -117.5 t-118 -46.5q-75 0 -121.5 56t-46.5 147z" />
<glyph unicode="&#x201d;" horiz-adv-x="995" d="M98 872q124 102 150 215q-62 6 -102 48.5t-40 103.5q0 71 46 117.5t118 46.5q75 0 122.5 -56t47.5 -145q0 -128 -69 -242t-193 -190zM551 872q123 101 149 215q-62 6 -101.5 48.5t-39.5 103.5q0 71 46 117.5t118 46.5q75 0 122.5 -56t47.5 -145q0 -128 -69 -242 t-193 -190z" />
<glyph unicode="&#x201e;" horiz-adv-x="995" d="M98 -225q124 102 150 215q-62 6 -102 48t-40 103q0 71 46 117.5t118 46.5q75 0 122.5 -56t47.5 -145q0 -128 -69 -242t-193 -190zM551 -225q123 101 149 215q-62 6 -101.5 48t-39.5 103q0 71 46 117.5t118 46.5q75 0 122.5 -56t47.5 -145q0 -128 -69 -242t-193 -190z" />
<glyph unicode="&#x2022;" horiz-adv-x="983" d="M197 590q0 123 86 209t209 86t208.5 -86t85.5 -209t-85.5 -209t-208.5 -86t-209 86t-86 209z" />
<glyph unicode="&#x2026;" horiz-adv-x="1966" d="M164 141q0 72 46.5 118t117.5 46q72 0 118 -46t46 -118q0 -71 -46 -117.5t-118 -46.5q-70 0 -117 46.5t-47 117.5zM819 141q0 72 46.5 118t117.5 46q72 0 118 -46t46 -118q0 -71 -46 -117.5t-118 -46.5q-71 0 -117.5 46.5t-46.5 117.5zM1475 141q0 72 46 118t117 46 q72 0 118 -46t46 -118q0 -71 -46 -117.5t-118 -46.5q-70 0 -116.5 46.5t-46.5 117.5z" />
<glyph unicode="&#x202f;" horiz-adv-x="375" />
<glyph unicode="&#x2039;" horiz-adv-x="673" d="M55 457v114l408 455l153 -123l-309 -389l309 -389l-153 -121z" />
<glyph unicode="&#x203a;" horiz-adv-x="673" d="M57 125l308 389l-308 389l154 123l407 -455v-114l-407 -453z" />
<glyph unicode="&#x205f;" horiz-adv-x="469" />
<glyph unicode="&#x20ac;" d="M61 477v160h125q-4 32 -4 51q0 30 4 84h-125v160h156q60 218 211.5 343.5t357.5 125.5q203 0 379 -101l-94 -178q-126 74 -254 74q-118 0 -208 -72.5t-126 -191.5h449v-160h-494q-4 -54 -4 -84q0 -9 1 -26t1 -25h496v-160h-461q34 -136 126.5 -216.5t219.5 -80.5 q128 0 254 74l94 -178q-176 -101 -379 -101q-213 0 -367.5 134.5t-211.5 367.5h-146z" />
<glyph unicode="&#x2122;" horiz-adv-x="1949" d="M45 1223v153h719v-153h-260v-699h-201v699h-258zM926 524v852h194l258 -358l260 358h193v-852h-180v584l-215 -299h-113l-219 299v-584h-178z" />
<glyph unicode="&#x25fc;" horiz-adv-x="1003" d="M0 0v1004h1004v-1004h-1004z" />
</font>
</defs>
</svg>
